<?xml version="1.0" standalone="no"?>
<!DOCTYPE svg PUBLIC "-//W3C//DTD SVG 20010904//EN"
 "http://www.w3.org/TR/2001/REC-SVG-20010904/DTD/svg10.dtd">
<svg version="1.0" xmlns="http://www.w3.org/2000/svg"
 width="2224.000000pt" height="1572.000000pt" viewBox="0 0 2224.000000 1572.000000"
 preserveAspectRatio="xMidYMid meet">

<g transform="translate(0.000000,1572.000000) scale(0.100000,-0.100000)"
fill="#000000" stroke="none">
<path d="M2688 14454 c-51 -27 -64 -91 -28 -137 11 -13 26 -49 34 -78 30 -115
62 -197 146 -374 57 -120 68 -144 115 -260 21 -49 46 -109 56 -132 48 -109 62
-140 76 -173 8 -19 25 -60 38 -90 13 -30 33 -77 45 -105 22 -49 28 -64 75
-175 13 -30 33 -76 44 -102 12 -26 21 -50 21 -52 0 -3 16 -40 36 -83 20 -43
43 -94 51 -113 14 -32 37 -83 106 -230 50 -108 89 -197 144 -330 30 -74 64
-155 75 -180 11 -25 26 -58 33 -75 54 -124 142 -306 437 -903 l140 -283 -47
-77 c-27 -42 -58 -95 -70 -117 -13 -22 -37 -65 -54 -95 -44 -77 -170 -336
-251 -515 -23 -51 -65 -160 -102 -270 -57 -164 -68 -197 -93 -280 -34 -113
-39 -131 -65 -230 -11 -44 -26 -102 -34 -130 -7 -27 -19 -77 -25 -110 -19 -89
-42 -195 -51 -235 -13 -52 -29 -155 -40 -250 -5 -47 -16 -146 -26 -220 -13
-105 -17 -227 -18 -545 -1 -448 4 -509 56 -715 17 -63 34 -133 38 -155 24
-115 100 -274 180 -377 134 -171 337 -291 531 -313 77 -8 260 11 344 37 176
55 500 250 709 427 49 42 114 96 145 120 31 25 61 50 67 55 6 6 46 43 89 81
148 132 200 180 298 276 88 86 99 94 112 79 8 -9 15 -19 15 -23 0 -3 13 -35
30 -70 16 -36 34 -87 40 -114 13 -61 58 -150 133 -266 67 -103 105 -129 157
-107 35 15 70 54 70 80 0 10 -11 40 -24 67 -13 26 -36 75 -52 108 -15 33 -51
108 -79 166 -29 59 -63 137 -75 174 -12 37 -35 82 -51 100 -16 18 -29 39 -29
46 0 8 20 34 43 59 35 37 174 197 246 285 23 28 130 160 166 204 17 20 84 100
151 176 143 166 360 428 400 484 5 6 28 -23 93 -119 36 -52 100 -143 143 -201
43 -59 78 -113 78 -120 0 -8 -10 -30 -22 -49 -33 -54 -56 -96 -121 -220 -87
-166 -435 -861 -481 -960 -21 -47 -58 -125 -81 -175 -24 -49 -50 -106 -58
-125 -8 -19 -29 -65 -46 -103 -17 -37 -31 -70 -31 -72 0 -2 -11 -28 -24 -57
-48 -106 -64 -145 -106 -248 -23 -58 -49 -119 -56 -137 -8 -17 -14 -34 -14
-37 0 -3 -8 -25 -19 -49 -10 -23 -24 -58 -31 -77 -7 -19 -19 -48 -26 -65 -47
-114 -170 -483 -214 -645 -5 -19 -19 -66 -30 -105 -12 -38 -26 -90 -31 -115
-6 -25 -14 -61 -19 -80 -22 -90 -42 -179 -50 -215 -4 -22 -15 -76 -24 -120
-53 -255 -74 -538 -58 -774 7 -88 17 -181 23 -207 17 -73 58 -205 73 -239 164
-358 169 -365 239 -365 22 0 41 8 55 23 36 38 29 86 -32 211 -29 61 -61 129
-71 151 -9 22 -21 49 -26 60 -19 43 -32 82 -39 115 -43 194 -44 205 -44 430 0
124 5 250 11 280 6 30 17 91 23 135 12 84 22 136 46 245 25 111 33 142 55 230
11 47 25 101 29 120 4 19 16 62 25 95 17 60 27 97 44 158 13 47 49 160 83 257
17 47 32 94 35 105 3 11 8 29 13 40 4 11 15 40 25 65 10 25 21 54 25 65 5 11
20 52 35 90 41 104 42 107 60 150 28 67 32 78 55 135 26 65 40 99 69 164 12
27 31 69 41 95 10 25 32 76 49 114 17 37 31 69 31 72 0 14 154 333 371 770
257 514 350 688 371 693 7 1 40 -30 73 -70 200 -244 477 -540 650 -697 168
-152 480 -377 683 -493 162 -92 218 -123 283 -155 91 -44 198 -93 205 -93 3 0
20 -6 37 -14 61 -27 326 -119 392 -136 229 -60 253 -65 370 -82 124 -18 648
-18 730 0 97 21 227 64 275 91 237 130 390 282 482 478 38 79 57 162 68 288 5
55 16 159 26 230 17 141 24 488 11 568 -8 46 -8 48 11 38 11 -6 26 -17 34 -23
157 -149 401 -321 584 -411 117 -57 160 -72 314 -106 154 -34 217 -26 278 39
47 49 62 110 62 257 0 70 4 134 8 141 6 9 37 -17 108 -89 217 -222 479 -427
814 -639 61 -39 113 -70 116 -70 2 0 21 -11 42 -23 70 -45 401 -217 507 -264
39 -17 97 -43 130 -58 119 -54 405 -156 531 -190 149 -40 303 -68 579 -105
124 -17 521 -24 635 -11 265 30 470 89 635 183 72 41 239 160 300 213 87 77
289 276 309 305 25 38 20 77 -13 111 -31 31 -59 36 -94 17 -12 -6 -87 -73
-165 -150 -295 -283 -469 -390 -740 -454 -182 -43 -233 -48 -492 -47 -219 1
-282 5 -445 27 -104 15 -208 31 -230 36 -22 4 -67 14 -100 20 -107 22 -361 99
-460 140 -11 5 -56 23 -100 40 -133 54 -401 182 -520 248 -27 16 -86 48 -130
71 -44 24 -92 52 -107 62 -14 11 -29 19 -33 19 -4 0 -25 13 -48 29 -23 15
-100 67 -172 115 -154 103 -156 104 -310 226 -122 96 -362 327 -451 434 -52
62 -160 153 -207 174 -60 26 -119 3 -137 -53 -14 -41 -9 -74 25 -182 14 -43
30 -104 36 -137 13 -71 3 -237 -16 -263 -12 -16 -16 -16 -66 -1 -30 9 -83 21
-119 28 -66 13 -195 65 -262 107 -21 13 -40 23 -43 23 -14 0 -232 154 -310
219 -167 140 -360 349 -418 453 -14 25 -36 63 -49 85 -13 21 -29 49 -36 63 -7
14 -27 42 -45 63 -28 34 -38 38 -76 39 -63 1 -91 -33 -91 -105 0 -64 23 -114
88 -194 28 -34 53 -73 57 -85 3 -13 10 -32 15 -43 16 -39 59 -191 69 -245 34
-191 37 -339 12 -565 -5 -44 -17 -152 -26 -240 -8 -88 -23 -182 -32 -210 -27
-84 -80 -178 -134 -238 -109 -122 -310 -253 -429 -278 -19 -4 -73 -15 -120
-25 -141 -30 -514 -21 -705 17 -27 5 -75 15 -105 21 -130 25 -461 134 -610
200 -25 11 -61 27 -80 35 -188 83 -436 227 -637 369 -349 246 -529 414 -883
824 -35 41 -67 77 -70 80 -28 24 -160 195 -160 208 0 32 316 502 479 712 180
233 424 492 601 639 58 48 116 94 130 104 194 132 405 242 565 296 135 44 197
53 352 48 81 -3 175 -10 208 -15 75 -11 256 -73 355 -120 138 -67 216 -45 214
60 0 49 -3 54 -51 97 -90 82 -242 124 -651 177 -125 16 -178 32 -297 92 -27
14 -64 35 -82 48 -17 13 -34 24 -37 24 -8 0 -209 141 -255 179 -24 20 -69 55
-100 79 -81 62 -126 107 -190 192 -64 84 -141 196 -141 204 0 10 -86 181 -128
254 -49 86 -112 265 -112 319 0 21 11 72 23 113 38 122 47 167 62 335 30 328
15 498 -63 693 -28 72 -101 158 -149 178 -46 20 -100 17 -138 -6 -39 -24 -57
-50 -74 -110 -7 -25 -20 -63 -28 -85 -11 -29 -17 -95 -20 -245 -5 -224 7 -348
48 -495 27 -99 83 -275 105 -330 13 -33 24 -66 24 -74 0 -8 -12 -53 -26 -100
-14 -47 -30 -104 -36 -126 -6 -22 -16 -58 -23 -80 -7 -22 -19 -60 -25 -85 -19
-68 -65 -208 -89 -270 -24 -61 -28 -70 -65 -153 -14 -32 -26 -60 -26 -62 0
-10 -93 -213 -132 -290 -75 -145 -148 -247 -243 -341 -138 -137 -246 -179
-390 -154 -132 23 -196 68 -297 210 -46 64 -148 257 -148 279 0 6 -4 19 -9 29
-22 39 -96 262 -126 377 -50 190 -70 417 -62 700 6 219 24 327 78 474 28 77
38 284 16 328 -36 69 -118 94 -171 52 -74 -59 -94 -189 -102 -694 -5 -292 -3
-395 10 -545 9 -101 21 -202 26 -225 29 -127 42 -183 51 -210 23 -75 81 -252
88 -270 5 -11 16 -40 26 -65 88 -230 239 -452 365 -534 71 -47 80 -51 160 -73
70 -19 240 -21 305 -4 115 30 190 77 308 194 62 62 124 131 137 155 13 23 27
42 32 42 4 0 8 5 8 12 0 6 6 19 14 27 27 30 104 177 161 306 27 62 51 114 80
180 15 33 34 78 42 100 8 22 21 54 28 70 14 32 100 296 115 355 5 19 12 45 15
58 13 47 36 15 149 -211 94 -186 211 -352 318 -452 98 -91 268 -223 413 -319
72 -48 131 -90 133 -95 3 -9 -23 -22 -116 -56 -101 -37 -317 -148 -437 -225
-55 -35 -102 -66 -105 -69 -3 -3 -23 -19 -45 -36 -159 -118 -392 -348 -612
-605 -107 -126 -382 -507 -498 -692 -49 -79 -71 -106 -81 -100 -20 11 -284
390 -284 407 0 8 43 65 95 127 53 62 150 178 217 258 67 80 124 147 127 150 4
3 31 34 61 70 30 36 68 80 85 98 57 64 69 122 34 166 -25 32 -73 45 -119 33
-42 -10 -171 -107 -213 -160 -25 -30 -30 -45 -29 -85 1 -45 -3 -53 -71 -138
-40 -49 -85 -102 -100 -118 -31 -31 -21 -32 -147 6 -39 11 -129 74 -175 122
-16 17 -65 73 -108 124 -42 50 -89 99 -103 109 -15 9 -53 19 -85 21 -51 4 -60
2 -83 -21 -20 -20 -26 -36 -26 -67 0 -50 7 -64 81 -160 31 -41 74 -106 94
-145 71 -132 86 -157 155 -266 39 -60 70 -112 70 -114 0 -3 -6 -13 -14 -22 -8
-10 -45 -56 -81 -103 -79 -101 -111 -139 -270 -325 -121 -141 -222 -261 -442
-525 -142 -171 -181 -212 -195 -208 -10 4 -88 150 -145 273 -72 156 -109 238
-148 330 -35 81 -75 165 -150 320 -46 94 -92 193 -104 221 -11 28 -29 72 -40
98 -12 25 -30 67 -41 92 -12 25 -86 177 -165 337 -78 161 -159 326 -178 367
-99 211 -159 340 -197 425 -73 163 -137 299 -261 551 -44 88 -79 166 -79 172
0 22 113 174 180 242 92 94 187 176 229 197 20 10 62 35 93 55 31 21 78 46
105 57 26 10 80 33 118 51 85 39 151 49 271 41 71 -5 97 -10 113 -25 37 -34
23 -118 -31 -187 -49 -64 -31 -129 42 -149 22 -6 51 -8 65 -4 27 7 75 57 75
78 0 7 12 41 26 76 23 57 25 75 22 160 -3 87 -6 100 -30 132 -15 19 -53 48
-85 64 -56 28 -63 29 -231 32 -163 3 -176 2 -240 -22 -112 -41 -274 -115 -306
-140 -17 -13 -54 -35 -83 -49 -95 -48 -333 -270 -396 -368 -11 -16 -25 -29
-32 -29 -12 0 -109 191 -347 680 -106 217 -153 316 -181 380 -8 19 -24 55 -35
80 -11 25 -41 97 -67 160 -26 63 -56 135 -67 160 -11 25 -26 59 -33 75 -13 29
-37 81 -110 240 -75 163 -83 181 -104 229 -12 27 -31 70 -41 96 -18 45 -28 69
-79 184 -12 27 -31 70 -41 96 -18 45 -28 69 -79 184 -12 27 -31 69 -41 95 -10
25 -29 71 -43 101 -14 31 -47 107 -72 170 -26 63 -71 165 -100 225 -29 61 -62
132 -75 160 -33 73 -80 226 -80 260 0 61 -64 126 -122 125 -13 -1 -35 -7 -50
-16z m5752 -2036 c22 -64 47 -174 53 -238 10 -104 -9 -454 -27 -487 -10 -20
-16 -24 -19 -13 -17 55 -37 134 -47 185 -6 33 -16 79 -21 102 -15 71 -4 441
15 472 13 21 34 11 46 -21z m-3967 -2131 c124 -255 188 -388 207 -432 81 -181
117 -260 175 -380 28 -60 72 -153 96 -205 24 -52 96 -201 160 -330 134 -271
123 -247 256 -550 8 -19 47 -100 86 -180 81 -167 137 -288 137 -295 0 -2 12
-30 26 -62 15 -32 32 -71 39 -88 56 -128 195 -413 244 -499 18 -32 20 -43 11
-60 -11 -21 -166 -176 -270 -271 -467 -424 -692 -593 -970 -727 -115 -56 -146
-65 -265 -78 -119 -13 -175 -5 -282 41 -108 46 -247 175 -306 284 -69 127
-133 352 -169 595 -17 112 -17 743 -1 895 7 61 19 173 28 250 17 155 18 161
45 290 35 158 62 289 67 315 2 14 8 34 13 45 10 27 35 118 51 185 6 30 25 96
42 145 16 50 33 104 37 120 5 17 27 82 50 145 23 63 44 125 47 138 3 12 9 25
14 28 5 3 9 12 9 20 0 17 14 47 188 414 19 41 54 106 76 145 23 38 54 95 70
127 17 33 34 54 42 51 7 -2 28 -37 47 -76z m2750 -1487 c22 0 22 -5 -4 -46
-22 -35 -27 -38 -45 -26 -19 12 -65 92 -59 102 3 5 24 0 48 -10 23 -11 50 -20
60 -20z"/>
<path d="M18170 11475 c-24 -25 -52 -48 -62 -51 -18 -5 -24 -29 -10 -38 14 -8
132 95 132 115 0 28 -11 23 -60 -26z"/>
</g>
</svg>
